<?xml version="1.0" encoding="utf-8"?>
<!-- Generator: Adobe Illustrator 24.0.0, SVG Export Plug-In . SVG Version: 6.00 Build 0)  -->
<svg version="1.1" id="Layer_1" xmlns="http://www.w3.org/2000/svg" xmlns:xlink="http://www.w3.org/1999/xlink" x="0px" y="0px"
	 viewBox="0 0 595.3 841.9" style="enable-background:new 0 0 595.3 841.9;" xml:space="preserve">
<style type="text/css">
	.st0{fill:none;stroke:#1E1E1C;stroke-miterlimit:10;}
	.st1{fill:#A84794;stroke:#A84794;stroke-width:0.75;stroke-miterlimit:10;}
	.st2{font-family:'MyriadPro-Regular';}
	.st3{font-size:14.8843px;}
	.st4{fill:#3D3E92;stroke:#3D3E92;stroke-width:0.75;stroke-miterlimit:10;}
	.st5{fill:#D00B22;stroke:#D00B22;stroke-width:0.75;stroke-miterlimit:10;}
	.st6{fill:#4EAE33;stroke:#4EAE33;stroke-width:0.75;stroke-miterlimit:10;}
	.st7{fill:none;stroke:#C62214;stroke-width:3;stroke-miterlimit:10;}
	.st8{fill:none;stroke:#3D3E92;stroke-width:3;stroke-miterlimit:10;}
	.st9{fill:none;stroke:#A84794;stroke-width:3;stroke-miterlimit:10;}
	.st10{fill:none;stroke:#4EAE33;stroke-width:3;stroke-miterlimit:10;}
</style>
<path class="st0" d="M216.1,348.3c0,0,3.4,15.8,15.3,28.5s46.1-0.1,46.1-0.1"/>
<path class="st0" d="M352.2,348.3c0,0-3.4,15.8-15.3,28.5c-11.9,12.7-46,0-46,0"/>
<text transform="matrix(1 0 0 1 388.4847 390.5654)" class="st1 st2 st3">16</text>
<text transform="matrix(1 0 0 1 290.9515 159.0799)" class="st4 st2 st3">18</text>
<text transform="matrix(1 0 0 1 305.5922 209.3748)" class="st5 st2 st3">19</text>
<text transform="matrix(1 0 0 1 306.593 592.5074)" class="st5 st2 st3">15</text>
<text transform="matrix(1 0 0 1 337.9405 128.5765)" class="st6 st2 st3">17</text>
<line class="st7" x1="224.6" y1="192.8" x2="340.9" y2="191.7"/>
<line class="st8" x1="284" y1="121.3" x2="284" y2="206.3"/>
<path class="st8" d="M359.1,143.4"/>
<path class="st8" d="M323.5,133"/>
<path class="st8" d="M303.7,124.1"/>
<path class="st0" d="M201.9,420.4c0,0-2.1,11.2-3.1,15.4c-2.4,0-3.3-5.8-3.3-5.8"/>
<path class="st0" d="M367,421.2c0,0,2.1,11.2,3.1,15.4c2.4,0,3.3-5.8,3.3-5.8"/>
<path class="st0" d="M353.7,286.7c0,0,5.8,12,13.3,7.3"/>
<path class="st0" d="M216.1,278.3c0,0-5.8,12-13.3,7.3"/>
<path class="st0" d="M381.4,401.5c0,0,2.5-42.5,2.5-64.1c0-21.6-2.9-39.2-4.3-42.1c-1.4-2.9-6.1-25.6-6.1-25.6v-24.5
	c0,0-2.2-47.2-4-71.6c-1.8-24.5-10.4-30.2-10.4-30.2s-12.6-6.8-35.6-10.4c-21.6-3.5-20.7-11.9-20.7-11.9V97l-0.2,0
	c12.7-14.6,15.9-42.8,14.2-61.2c-2.3-25.4-33.1-25.2-33.1-25.2s-30.8-0.2-33.1,25.2c-1.7,18.6,1.6,47.2,14.6,61.6v24.9
	c0,0,0,7.6-20.7,11.9c-22.8,4.8-35.6,10.4-35.6,10.4s-8.6,5.8-10.4,30.2c-1.8,24.5-4,71.6-4,71.6v24.5c0,0-4.7,22.7-6.1,25.6
	s-4.3,20.5-4.3,42.1c0,21.6,3.2,63,3.2,63s-7,31-7,34.9c0,3.9,3,6.6,3,6.6s14.6,15.7,16.6,15.7s0-4.2,0-4.2l-6.4-16.7
	c0,0,1.4-6,3.1-10.2s3.4-3.5,5.4-7.5c2-4-1-21-1-21c1.1-8.6,9.4-52.1,9.4-52.1s5-22.9,4-59.2l10.1-42.1l0.9-49l18.1,80.7
	c0,0-21.4,42.8-27.2,70.8c-0.5,2.6-0.9,5.1-1.2,7.3c-2.9,27,1.8,86.8,1.8,86.8l11.9,88.6c0,0,6.8,39.6-1.4,62.6
	c-8.3,23,9.4,116.3,9.4,116.3s9.7,42.1,6.5,51.8c0,0-4,2.9,0.4,9.4c0,0-9,21.6-6.1,30.6c2.3,7.1,23.2,9.2,31.8,2.9l0,0.1
	c0,0,16.3-1.7,18.6-1.9c2.3-0.2,2.7-4.7,2.7-4.7l-22.1-19.4l0,0c-1.6-3.7-3-5.9-3-5.9s5.6-10.1-2-11.9c0,0-0.7-20.9,3.6-90.4
	s0.4-90.7,0.4-90.7s-1.1-10.4,1.4-21.2l-1.1-25.2l7.6-84.2l4-59.8c0,0,1.4-9.6-2.6-12.8l16.3-0.1c-4,3.2-3.7,11.6-3.7,11.6l4,59.8
	l7.6,84.2l-1.1,25.2c2.5,10.8,1.4,21.2,1.4,21.2s-4,21.2,0.4,90.7c4.3,69.5,3.6,90.4,3.6,90.4c-7.6,1.8-2,11.9-2,11.9
	s-4.8,11-5.1,25c-0.3,12.1,21.7,12.6,29.6,6.7l0,0.4c0,0,16.4,0,18.7,0s3.2-4.4,3.2-4.4l-22.3-23.5l0,0.6c-1.2-3.9-2.3-6.7-2.3-6.7
	c4.3-6.5,0.4-9.4,0.4-9.4c-3.2-9.7,6.5-51.8,6.5-51.8s17.6-93.2,9.4-116.3c-8.3-23-1.4-62.6-1.4-62.6l11.9-88.6
	c0,0,4.7-59.8,1.8-86.8c-2.9-27-28.4-78.1-28.4-78.1l15.8-83.3l3.2,51.6l10.1,42.1c-1.1,36.4,4,59.2,4,59.2s9,44.6,10.1,53.2
	c0,0-3,17-1,21c2,4,3.8,3.3,5.4,7.5c1.6,4.2,3.1,10.2,3.1,10.2l-6.4,16.7c0,0-2.1,4.2,0,4.2s16.6-15.7,16.6-15.7s3-2.8,3-6.6
	C388.5,432.5,381.4,401.5,381.4,401.5z"/>
<path class="st9" d="M361.1,143.4c0,0,8.7,9.9,9.6,30.5c0.8,20.5,4,96.1,4,96.1s-0.9,5.3,6.1,25.6c7.1,20.2,1.8,106.2,1.8,106.2"/>
<line class="st10" x1="305.6" y1="126.6" x2="361.7" y2="143.6"/>
<polyline class="st7" points="287.6,376.6 300.4,532.2 299.4,557.4 295.1,762.8 295.1,801.2 "/>
</svg>
