<?xml version="1.0" encoding="utf-8"?>
<!-- Generator: Adobe Illustrator 24.0.0, SVG Export Plug-In . SVG Version: 6.00 Build 0)  -->
<svg version="1.1" id="Layer_1" xmlns="http://www.w3.org/2000/svg" xmlns:xlink="http://www.w3.org/1999/xlink" x="0px" y="0px"
	 viewBox="0 0 595.3 841.9" style="enable-background:new 0 0 595.3 841.9;" xml:space="preserve">
<style type="text/css">
	.st0{fill:none;stroke:#020203;stroke-miterlimit:10;}
	.st1{fill:none;stroke:#2F4C9B;stroke-width:2;stroke-miterlimit:10;stroke-dasharray:4;}
	.st2{fill:none;stroke:#2F4C9B;stroke-width:3;stroke-linecap:round;stroke-miterlimit:10;}
	.st3{fill:#2E4093;stroke:#2E4093;stroke-width:0.75;stroke-miterlimit:10;}
	.st4{font-family:'MyriadPro-Regular';}
	.st5{font-size:14.8843px;}
	.st6{fill:#D0122E;stroke:#D0122E;stroke-width:0.75;stroke-miterlimit:10;}
	.st7{fill:#D0122E;stroke:#D0122E;stroke-width:3;stroke-miterlimit:10;}
</style>
<path class="st0" d="M408,256h21.4l34.4,497.1h-21.4l-21.4-188.6l-182.7,2.4L224.1,759h-22.5l8.3-220.7l211.2-5.9L408,256l1.2,23.7
	c0,0-11.4,49.7-13.3,73.4s12.1,69,12.1,69s11.4,42.3,7.6,68.6c-3.7,26.3-31.2,42.8-31.2,42.8L282.3,536l-89.3-12.5
	c0,0-3.6,23.7-4.4,45.7c-3.5,29.7-21.5,96.5-26.1,113.9c-4.6,17.4-1.8,36.2-1.8,36.2s11.9,20.2,6.5,32.6
	c-5.4,12.4-24.9,13.1-24.9,13.1s-18.9-4.6-35.6,0c-16.7,4.6-56.7,4.4-66.4,0c-4.7-8.9,9.5-13.1,9.5-13.1s65-20.1,70-24.9
	c7.7-7.4,7.7-29.8,7.1-27.3c0,0,3.9-200.3,10.7-224.2s134.5-46.7,151.8-40c-1-50.5,3.1-78.2,3.1-78.2l-12.6-82.2"/>
<g>
	<path class="st1" d="M399.3,357.3c0,0.5-0.4,1-1.1,1.5c-5.1,3.4-27.5,6-54.2,6c-28.1,0-51.4-2.9-54.9-6.5c-0.3-0.3-0.4-0.6-0.4-1
		c0-4.1,24.8-7.5,55.3-7.5S399.3,353.2,399.3,357.3z"/>
	<path class="st2" d="M398.2,358.8c0,0-8.9,6-54.2,6c-51.9-0.5-54.9-6.5-54.9-6.5"/>
</g>
<text transform="matrix(1 0 0 1 380.9283 331.2941)" class="st3 st4 st5">3</text>
<text transform="matrix(1 0 0 1 377.9717 414.9229)" class="st6 st4 st5">23</text>
<line class="st7" x1="371.5" y1="363.9" x2="371.5" y2="533.8"/>
</svg>
