<?xml version="1.0" encoding="utf-8"?>
<!-- Generator: Adobe Illustrator 24.0.0, SVG Export Plug-In . SVG Version: 6.00 Build 0)  -->
<svg version="1.1" id="Layer_1" xmlns="http://www.w3.org/2000/svg" xmlns:xlink="http://www.w3.org/1999/xlink" x="0px" y="0px"
	 viewBox="0 0 525.2 933.7" style="enable-background:new 0 0 525.2 933.7;" xml:space="preserve">
<style type="text/css">
	.st0{fill:none;stroke:#2B2522;stroke-miterlimit:10;}
	.st1{fill:none;}
	.st2{fill:#D00B22;stroke:#D00B22;stroke-width:0.75;stroke-miterlimit:10;}
	.st3{font-family:'MyriadPro-Regular';}
	.st4{font-size:14.8843px;}
	.st5{fill:#6DB52D;stroke:#6DB52D;stroke-width:0.75;stroke-miterlimit:10;}
	.st6{fill:#2E4093;stroke:#2E4093;stroke-width:0.75;stroke-miterlimit:10;}
	.st7{fill:#58C3E8;stroke:#58C3E8;stroke-width:0.75;stroke-miterlimit:10;}
	.st8{fill:#B34D97;stroke:#B34D97;stroke-width:0.75;stroke-miterlimit:10;}
	.st9{fill:none;stroke:#B34D97;stroke-width:2;stroke-miterlimit:10;stroke-dasharray:4;}
	.st10{fill:none;stroke:#B34D97;stroke-width:3;stroke-linecap:round;stroke-miterlimit:10;}
	.st11{fill:none;stroke:#58C3E8;stroke-width:2;stroke-miterlimit:10;stroke-dasharray:4;}
	.st12{fill:none;stroke:#58C3E8;stroke-width:3;stroke-linecap:round;stroke-miterlimit:10;}
	.st13{fill:none;stroke:#2F4C9B;stroke-width:2;stroke-miterlimit:10;stroke-dasharray:4;}
	.st14{fill:none;stroke:#2F4C9B;stroke-width:3;stroke-linecap:round;stroke-miterlimit:10;}
	.st15{fill:none;stroke:#C62214;stroke-width:2;stroke-miterlimit:10;stroke-dasharray:4;}
	.st16{fill:none;stroke:#C62214;stroke-width:3;stroke-linecap:round;stroke-miterlimit:10;}
	.st17{fill:none;stroke:#D00B22;stroke-width:2;stroke-miterlimit:10;}
	.st18{fill:none;stroke:#6DB52D;stroke-width:3;stroke-miterlimit:10;}
</style>
<path class="st0" d="M264.3,159v25.2c0,0,0,7.6-20.7,11.9c-22.8,4.8-35.6,10.4-35.6,10.4s-8.6,5.8-10.4,30.2
	c-1.8,24.5-4,71.6-4,71.6v24.5c0,0-4.7,22.7-6.1,25.6s-4.3,20.5-4.3,42.1c0,21.6,2.5,64.1,2.5,64.1s-1.1,16.9-2.5,24.8
	c-1.4,7.9,0.7,19.9,0.7,19.9l9.7,16.1c0,0,5.2,5.5,12.4,5.5c0,0,2.9-1.9-2.4-4.1c-5.3-2.2-7.1-8.6-7.1-8.6s-3.4-11.9-2.6-18.2
	c0.7-6.4,3.1-13.4,3.1-13.4s2.2,1.8,3.7,9c1.6,7.2,4.6,10.1,6.7,10.2s-0.5-28-0.8-29.5s-8.3-5.4-7.2-14c1.1-8.6,10.1-53.2,10.1-53.2
	s5-22.9,4-59.2l10.1-42.1l2.8-31.7l16.2,63.4c0,0-21.4,42.8-27.2,70.8c-0.5,2.6-0.9,5.1-1.2,7.3c-2.9,27,1.8,86.8,1.8,86.8
	l11.9,88.6c0,0,6.8,39.6-1.4,62.6c-8.3,23,9.4,116.3,9.4,116.3s9.7,42.1,6.5,51.8c0,0-4,2.9,0.4,9.4c0,0-12.2,51.1-9.4,60.1
	c2.9,9,14,13.3,21.2,14s17.3,5,16.9-9c-0.4-14-7-63.4-7-63.4s5.6-10.1-2-11.9c0,0-0.7-20.9,3.6-90.4c4.3-69.5,0.4-90.7,0.4-90.7
	s-1.1-10.4,1.4-21.2l-1.1-25.2l7.6-84.2l4-59.8c0,0,1.4-9.6-2.6-12.8l16.3-0.1c-4,3.2-3.7,11.6-3.7,11.6l4,59.8l7.6,84.2l-1.1,25.2
	c2.5,10.8,1.4,21.2,1.4,21.2s-4,21.2,0.4,90.7c4.3,69.5,3.6,90.4,3.6,90.4c-7.6,1.8-2,11.9-2,11.9s-6.6,49.3-7,63.4
	c-0.4,14,9.7,9.7,16.9,9c7.2-0.7,18.4-5,21.2-14c2.9-9-9.4-60.1-9.4-60.1c4.3-6.5,0.4-9.4,0.4-9.4c-3.2-9.7,6.5-51.8,6.5-51.8
	s17.6-93.2,9.4-116.3c-8.3-23-1.4-62.6-1.4-62.6l11.9-88.6c0,0,4.7-59.8,1.8-86.8c-2.9-27-28.4-78.1-28.4-78.1l16.2-63.4l2.8,31.7
	l10.1,42.1c-1.1,36.4,4,59.2,4,59.2s9,44.6,10.1,53.2c1.1,8.6-6.1,11.4-7.2,14c-1.1,2.7-3,29.6-0.8,29.5c2.2-0.1,5.2-3,6.7-10.2
	c1.6-7.2,3.7-9,3.7-9s2.4,7.1,3.1,13.4c0.7,6.4-2.6,18.2-2.6,18.2s-1.8,6.5-7.1,8.6c-5.3,2.2-2.4,4.1-2.4,4.1
	c7.2,0,12.4-5.5,12.4-5.5l9.7-16.1c0,0,2.2-12,0.7-19.9c-1.4-7.9-2.5-24.8-2.5-24.8s2.5-42.5,2.5-64.1c0-21.6-2.9-39.2-4.3-42.1
	c-1.4-2.9-6.1-25.6-6.1-25.6v-24.5c0,0-2.2-47.2-4-71.6c-1.8-24.5-10.4-30.2-10.4-30.2s-12.6-6.8-35.6-10.4
	c-21.6-3.5-20.7-11.9-20.7-11.9v-24.1"/>
<path class="st0" d="M269.3,278.9c-12.7,8-19.4,8.1-19.4,8.1c-32,0.2-27-35.9-27.7-30.6"/>
<path class="st0" d="M343.4,255.3c-0.6-5.3,4.3,30.8-27.7,30.6c0,0-6.7-0.2-19.4-8.1"/>
<path class="st0" d="M282.8,72.5c0,0-30.8-0.2-33.1,25.2c-2.3,25.4,4.7,69.7,33.1,70.6"/>
<path class="st0" d="M282.8,72.5c0,0,30.8-0.2,33.1,25.2c2.3,25.4-4.7,69.7-33.1,70.6"/>
<rect x="1.7" y="4.3" class="st1" width="525.2" height="933.7"/>
<text transform="matrix(1 0 0 1 302.6976 204.2894)" class="st2 st3 st4">1</text>
<text transform="matrix(1 0 0 1 305.6483 264.2616)" class="st2 st3 st4">2</text>
<text transform="matrix(1 0 0 1 226.8778 233.9493)" class="st5 st3 st4">10</text>
<text transform="matrix(1 0 0 1 259.6994 477.1481)" class="st6 st3 st4">11</text>
<text transform="matrix(1 0 0 1 296.3193 320.8113)" class="st6 st3 st4">3</text>
<text transform="matrix(1 0 0 1 236.4566 612.2151)" class="st6 st3 st4">12</text>
<text transform="matrix(1 0 0 1 242.1537 666.9345)" class="st6 st3 st4">13</text>
<text transform="matrix(1 0 0 1 244.6286 808.2363)" class="st6 st3 st4">14</text>
<text transform="matrix(1 0 0 1 283.2562 390.5131)" class="st7 st3 st4">4</text>
<text transform="matrix(1 0 0 1 329.1392 436.1511)" class="st8 st3 st4">6</text>
<text transform="matrix(1 0 0 1 242.5169 368.0779)" class="st2 st3 st4">7</text>
<text transform="matrix(1 0 0 1 316.9578 363.1685)" class="st2 st3 st4">5</text>
<text transform="matrix(1 0 0 1 380.6135 279.5154)" class="st2 st3 st4">8</text>
<text transform="matrix(1 0 0 1 389.7935 463.4027)" class="st2 st3 st4">9</text>
<path class="st9" d="M351.9,410.8c0,1.2-0.5,2.3-1.4,3.4c-6.4,7.8-34,13.6-67.1,13.6c-34.9,0-63.7-6.5-68-14.8
	c-0.4-0.7-0.6-1.4-0.6-2.2c0-9.4,30.7-17,68.5-17S351.9,401.4,351.9,410.8z"/>
<path class="st10" d="M350.5,414.2c0,0-11,13.6-67.1,13.6c-64.3-1.1-68-14.8-68-14.8"/>
<path class="st11" d="M343.9,384c0,1-0.4,1.9-1.2,2.8c-5.7,6.4-30.3,11.2-59.8,11.2c-31.1,0-56.7-5.4-60.6-12.3
	c-0.3-0.6-0.5-1.2-0.5-1.8c0-7.8,27.3-14.1,61.1-14.1C316.6,369.9,343.9,376.2,343.9,384z"/>
<path class="st12" d="M342.7,386.8c0,0-9.8,11.2-59.8,11.2c-57.3-0.9-60.6-12.3-60.6-12.3"/>
<path class="st13" d="M323.7,338.2c0,0.6-0.3,1.2-0.8,1.8c-3.8,4.1-20.2,7.2-40,7.2c-20.8,0-37.9-3.4-40.5-7.8
	c-0.2-0.4-0.3-0.8-0.3-1.1c0-4.9,18.3-9,40.8-9C305.5,329.2,323.7,333.2,323.7,338.2z"/>
<path class="st14" d="M322.9,340c0,0-6.5,7.2-40,7.2c-38.3-0.6-40.5-7.8-40.5-7.8"/>
<g>
	<path class="st13" d="M279.9,451.8c0,0.5-0.2,1-0.7,1.5c-3.2,3.4-17,6-33.5,6c-17.4,0-31.7-2.9-33.9-6.5c-0.2-0.3-0.3-0.6-0.3-1
		c0-4.1,15.3-7.5,34.2-7.5S279.9,447.7,279.9,451.8z"/>
	<path class="st14" d="M279.2,453.3c0,0-5.5,6-33.5,6c-32-0.5-33.9-6.5-33.9-6.5"/>
</g>
<g>
	<path class="st13" d="M269.4,627.7c0,0.4-0.1,0.8-0.4,1.1c-2,2.5-10.7,4.4-21.1,4.4c-10.9,0-20-2.1-21.3-4.8
		c-0.1-0.2-0.2-0.5-0.2-0.7c0-3.1,9.6-5.5,21.5-5.5C259.7,622.2,269.4,624.6,269.4,627.7z"/>
	<path class="st14" d="M268.9,628.8c0,0-3.4,4.4-21.1,4.4c-20.2-0.4-21.3-4.8-21.3-4.8"/>
</g>
<g>
	<path class="st13" d="M268.3,824.6c0,0.4-0.1,0.8-0.3,1.2c-1.5,2.7-8.1,4.7-15.9,4.7c-8.3,0-15.1-2.2-16.1-5.1
		c-0.1-0.2-0.1-0.5-0.1-0.8c0-3.2,7.3-5.9,16.3-5.9C261,818.7,268.3,821.3,268.3,824.6z"/>
	<path class="st14" d="M268,825.7c0,0-2.6,4.7-15.9,4.7c-15.3-0.4-16.1-5.1-16.1-5.1"/>
</g>
<g>
	<path class="st13" d="M269.4,682.7c0,0.5-0.2,1.1-0.5,1.6c-2.3,3.5-12.2,6.2-24.1,6.2c-12.5,0-22.8-2.9-24.4-6.7
		c-0.1-0.3-0.2-0.7-0.2-1c0-4.3,11-7.7,24.6-7.7S269.4,678.5,269.4,682.7z"/>
	<path class="st14" d="M268.9,684.3c0,0-3.9,6.2-24.1,6.2c-23.1-0.5-24.4-6.7-24.4-6.7"/>
</g>
<path class="st15" d="M343.9,260.4c0,0.9-0.4,1.7-1.2,2.5c-5.7,5.7-30.3,9.9-59.8,9.9c-31.1,0-56.7-4.7-60.6-10.8
	c-0.3-0.5-0.5-1-0.5-1.6c0-6.8,27.3-12.4,61.1-12.4C316.6,248,343.9,253.6,343.9,260.4z"/>
<path class="st16" d="M342.7,262.9c0,0-9.8,9.9-59.8,9.9c-57.3-0.8-60.6-10.8-60.6-10.8"/>
<g>
	<path class="st15" d="M374.1,273.9c0.1,0.4,0,0.9-0.2,1.4c-1.3,3.2-8.4,6.3-17.2,7.4c-9.3,1.2-17.3-0.3-18.8-3.4
		c-0.1-0.3-0.2-0.5-0.3-0.8c-0.5-3.6,7.3-7.5,17.4-8.8S373.6,270.3,374.1,273.9z"/>
	<g>
		<path class="st16" d="M373.9,275.2c0,0-2.3,5.5-17.2,7.4c-17.2,1.7-18.8-3.4-18.8-3.4"/>
	</g>
</g>
<g>
	<path class="st15" d="M383.3,460.8c0,0.2,0,0.4-0.1,0.5c-0.8,1.3-4.7,2.7-9.6,3.3c-5.1,0.6-9.5,0.2-10.3-1
		c-0.1-0.1-0.1-0.2-0.1-0.3c-0.2-1.4,4.2-3.2,9.7-3.9S383.1,459.4,383.3,460.8z"/>
	<g>
		<path class="st16" d="M383.1,461.3c0,0-1.4,2.3-9.6,3.3c-9.5,1-10.3-1-10.3-1"/>
	</g>
</g>
<line class="st17" x1="309.4" y1="346.4" x2="317.8" y2="394.5"/>
<line class="st17" x1="259.7" y1="344.6" x2="246.9" y2="426"/>
<path class="st18" d="M284.1,177.5c0,0-24,1.6-27.4,7.6c-2,5.8-4.9,16.9-4.9,16.9l-6.1,67.4l8.9,75.8"/>
<g>
	<g>
		<path class="st16" d="M305.6,186c0,0-3.7,3.9-22.6,3.9c-21.6-0.3-22.8-4.2-22.8-4.2"/>
	</g>
	<path class="st15" d="M306.1,185.1c0,0.3-0.2,0.7-0.5,1c-2.1,2.2-11.4,3.9-22.6,3.9c-11.7,0-21.4-1.8-22.8-4.2
		c-0.1-0.2-0.2-0.4-0.2-0.6c0-2.7,10.3-4.8,23-4.8C295.8,180.2,306.1,182.4,306.1,185.1z"/>
</g>
</svg>
