<?xml version="1.0" encoding="utf-8"?>
<!-- Generator: Adobe Illustrator 24.0.0, SVG Export Plug-In . SVG Version: 6.00 Build 0)  -->
<svg version="1.1" id="Layer_1" xmlns="http://www.w3.org/2000/svg" xmlns:xlink="http://www.w3.org/1999/xlink" x="0px" y="0px"
	 viewBox="0 0 595.3 841.9" style="enable-background:new 0 0 595.3 841.9;" xml:space="preserve">
<style type="text/css">
	.st0{fill:none;stroke:#020203;stroke-miterlimit:10;}
	.st1{fill:none;stroke:#C62214;stroke-width:3;stroke-miterlimit:10;}
	.st2{fill:none;stroke:#0062AE;stroke-width:3;stroke-miterlimit:10;}
	.st3{fill:#D00B22;stroke:#D00B22;stroke-width:0.75;stroke-miterlimit:10;}
	.st4{font-family:'MyriadPro-Regular';}
	.st5{font-size:14.8843px;}
	.st6{fill:#81BC3F;stroke:#81BC3F;stroke-width:0.75;stroke-miterlimit:10;}
	.st7{fill:#0062AE;stroke:#0062AE;stroke-width:0.75;stroke-miterlimit:10;}
	.st8{fill:none;stroke:#81BC3F;stroke-width:3;stroke-miterlimit:10;}
	.st9{fill:none;stroke:#1E1E1C;stroke-miterlimit:10;}
</style>
<path class="st0" d="M307.2,149.4l2.7,19.4c0,0-9.5,11-17.7,16.3c-2.7,5.2-7.7,14.8-7.7,14.8s-26.3,17.5-33.5,27.8
	c-2.6,12.1,11.5,23.9,11.5,23.9s-0.9,19-0.5,30.6c-3.4,7.6,1.4,33,1.4,33s-8.5,15.7-7.7,40.2c-3.4,13.2,2.9,41.2,2.9,41.2
	c-1.5-5-4.6,46.2,1,75.6c1.6,8.3,20.6,79,20.6,79s-1.9,20.6,1,29.2c2.9,8.6,12,21.9,10.5,31.6c-1.5,9.7-4.2,22.7-2.4,39.2
	c1.8,16.5,5.7,52.2,5.7,52.2l3.4,57.4v9.1c0,0-28.2,12.9-40.2,19.6c-9.8,0.3-26.3,9.1-26.3,9.1s-3.2,8.1,3.8,8.1c7,0,14.4,0,14.4,0
	s23.8,4.8,29.7,2.9s12.9-4.6,19.6-5.3c6.7-0.7,13.9,5.3,13.9,5.3s13.4,3.6,19.1,0c5.8-3.6,3.4-16.3,3.4-16.3s-6.5-19-7.7-50.7
	c-1.2-31.7,13-83.2,13.9-104.8s-8.6-43.6-8.6-43.6s-2.4-6.8-2.4-19.1s0-29.7,0-29.7l8.1-110.1c0,0,6.6-6.2,19.9-26.3
	c4-13.2-3.7-30.2-3.7-30.2L331,314.3c0,0,27.7-63.8,34-79.9c6.3-16.1,0-27.8,0-27.8l-25.4-49v-14.9c0,0,15.5-19.5,19.5-24.6
	s7.7-17.8-6.2-33.2c-20.6-19.4-60.1,0-60.1,0s-9.2,9.3-7.2,19.7c-3.3,6.4-12.2,12.8-11.7,15.8c0.5,3.1,7.4,5.4,7.4,5.4
	s-2.6,18.2-0.3,21.5C287.5,153.3,307.2,149.4,307.2,149.4z"/>
<path class="st1" d="M331,316.1c0,0,36.8-81.5,36.8-94.7s-28.3-63.8-28.3-63.8"/>
<path class="st2" d="M332,316.1c0,0,26.9,67.4,27,76.8c0.1,9.4,3.2,420.2,3.2,420.2"/>
<text transform="matrix(1 0 0 1 373.3096 258.8442)" class="st3 st4 st5">21</text>
<text transform="matrix(1 0 0 1 246.1092 207.112)" class="st6 st4 st5">22</text>
<text transform="matrix(1 0 0 1 362.1091 377.371)" class="st7 st4 st5">20</text>
<path class="st8" d="M339.5,157.6c-4.5,15.6-29.6,11.2-29.6,11.2l-17.7,16.3L251,227.7"/>
<path class="st9" d="M307,199.3c0,0-8,8.4-11.8,32.7c-3.8,24.3-1.5,68.6-1.5,68.6l4.3,22.1c0,0-12,47.1-13.7,68.6
	c-1.8,21.5-7,60-7,60s-12.9,24.5-13.2,28.4c-0.3,3.9,2.5,16.1,2.5,16.1s13.2,16.8,15.3,17s0.3-4.2,0.3-4.2l-5-17.2
	c0,0,1.9-5.8,3.9-9.9c2-4.1,3.7-3.2,6-7c2.3-3.8,0.7-21.1,0.7-21.1c1.8-8.5,13.6-51.2,13.6-51.2s9.8-34.6,21.1-68.4l1.2-31.4
	c0,0,11.9-80.4,7.3-95.3C326.3,192.3,307,199.3,307,199.3z"/>
</svg>
